<svg xmlns="http://www.w3.org/2000/svg" width="104" height="115.132" viewBox="0 0 104 115.132">
  <defs>
    <style>
      .cls-1, .cls-2 {
        fill: #005d2e;
      }

      .cls-1 {
        font-size: 15px;
        font-family: SegoeUI, Segoe UI;
        letter-spacing: 0.1em;
      }
    </style>
  </defs>
  <g id="Component_8_1" data-name="Component 8 – 1" transform="translate(1)">
    <text id="_100_Bio-available" data-name="100%
Bio-available" class="cls-1" transform="translate(51 88.132)"><tspan x="-20.517" y="0">100%</tspan><tspan x="-51.33" y="23">Bio-available</tspan></text>
    <g id="Group_218" data-name="Group 218" transform="translate(-1154.508 -2698.671)">
      <g id="Group_212" data-name="Group 212">
        <path id="Path_204" data-name="Path 204" class="cls-2" d="M1204.973,2740.006a10.59,10.59,0,0,1-3.859-.7,10.726,10.726,0,0,1-6.646-11.462,19.768,19.768,0,0,1,2.186-6.361c1.059-2.061,2.281-4.033,3.464-5.94l.887-1.437c.822-1.336,1.466-2.437,2.027-3.469.072-.127.214-.342.4-.612s.4-.593.6-.913a2.2,2.2,0,0,1,3.777.08h0c.669,1.179,1.373,2.361,2.083,3.552,2.4,4.034,4.888,8.206,6.292,12.679a11.663,11.663,0,0,1,.246,6.788,10.332,10.332,0,0,1-4.315,5.608A13.162,13.162,0,0,1,1204.973,2740.006Zm.869-28.018c-.044.066-.08.12-.1.159-.572,1.052-1.242,2.2-2.092,3.58l-.894,1.448c-1.15,1.855-2.339,3.773-3.339,5.72a16.944,16.944,0,0,0-1.872,5.349,7.734,7.734,0,0,0,4.7,8.174,9.315,9.315,0,0,0,8.173-1.191,7.336,7.336,0,0,0,3.044-3.9,8.764,8.764,0,0,0-.232-4.975c-1.3-4.128-3.686-8.141-6-12.022C1206.762,2713.546,1206.3,2712.766,1205.842,2711.988Z"/>
      </g>
      <g id="Group_215" data-name="Group 215">
        <g id="Group_213" data-name="Group 213">
          <path id="Path_205" data-name="Path 205" class="cls-2" d="M1187.534,2739.6a23.275,23.275,0,0,1,32.743-32.743l2.106-2.106a26.315,26.315,0,0,0-23.638-5.2,25.757,25.757,0,0,0-18.526,18.522,26.323,26.323,0,0,0,5.21,23.638Z"/>
        </g>
        <g id="Group_214" data-name="Group 214">
          <path id="Path_206" data-name="Path 206" class="cls-2" d="M1223.666,2710.252a23.272,23.272,0,0,1-32.743,32.738l-2.106,2.106a26.334,26.334,0,0,0,23.646,5.209,25.748,25.748,0,0,0,18.518-18.526,26.315,26.315,0,0,0-5.209-23.634Z"/>
        </g>
      </g>
      <g id="Group_216" data-name="Group 216">
        <path id="Path_207" data-name="Path 207" class="cls-2" d="M1189.92,2749.357a1.328,1.328,0,0,1-1.319-1.186l-.618-5.758,6.547-.4a1.329,1.329,0,0,1,.162,2.652l-3.77.231.321,2.991a1.33,1.33,0,0,1-1.18,1.463A1.414,1.414,0,0,1,1189.92,2749.357Z"/>
      </g>
      <g id="Group_217" data-name="Group 217">
        <path id="Path_208" data-name="Path 208" class="cls-2" d="M1216.435,2707.577a1.328,1.328,0,0,1-.079-2.654l3.769-.228-.321-2.994a1.329,1.329,0,1,1,2.642-.283l.617,5.761-6.547.4Z"/>
      </g>
    </g>
  </g>
</svg>
