<svg xmlns="http://www.w3.org/2000/svg" width="305.544" height="215.61" viewBox="0 0 305.544 215.61">
  <defs>
    <style>
      .cls-1, .cls-11, .cls-2, .cls-4 {
        fill: none;
      }

      .cls-1, .cls-10, .cls-11, .cls-4 {
        stroke: #fff;
      }

      .cls-1, .cls-10, .cls-11, .cls-2, .cls-4 {
        stroke-miterlimit: 10;
      }

      .cls-2 {
        stroke: #231f20;
      }

      .cls-3, .cls-6, .cls-8 {
        fill: #231f20;
      }

      .cls-11, .cls-4 {
        stroke-linecap: round;
      }

      .cls-5, .cls-7, .cls-9 {
        fill: #fff;
      }

      .cls-6, .cls-7 {
        font-size: 8.434px;
      }

      .cls-6, .cls-7, .cls-8, .cls-9 {
        font-family: SegoeUI, Segoe UI;
      }

      .cls-8 {
        font-size: 5.903px;
      }

      .cls-9 {
        font-size: 15px;
        letter-spacing: 0.1em;
      }

      .cls-10 {
        fill: #eaa921;
        stroke-width: 1.644px;
      }

      .cls-11 {
        stroke-width: 1.763px;
      }
    </style>
  </defs>
  <g id="Component_2_1" data-name="Component 2 – 1" transform="translate(0.822 0.822)">
    <path id="Path_287" data-name="Path 287" class="cls-1" d="M2735.61,7277.227h-12.856v188.654h262.275l9.327-9.327" transform="translate(-2689.988 -7251.593)"/>
    <g id="Group_308" data-name="Group 308" transform="translate(-2689.988 -7251.593)">
      <path id="Path_288" data-name="Path 288" class="cls-2" d="M2983.7,7445.195H2753.3V7302.013"/>
      <line id="Line_81" data-name="Line 81" class="cls-3" x2="230.401" transform="translate(2753.296 7325.961)"/>
      <line id="Line_82" data-name="Line 82" class="cls-3" x2="230.401" transform="translate(2753.296 7349.656)"/>
      <line id="Line_83" data-name="Line 83" class="cls-3" x2="230.401" transform="translate(2753.296 7373.352)"/>
      <line id="Line_84" data-name="Line 84" class="cls-3" x2="230.401" transform="translate(2753.296 7397.047)"/>
      <line id="Line_85" data-name="Line 85" class="cls-3" x2="230.401" transform="translate(2753.296 7420.743)"/>
      <line id="Line_86" data-name="Line 86" class="cls-4" y1="98.059" x2="153.769" transform="translate(2790.856 7325.961)"/>
      <ellipse id="Ellipse_37" data-name="Ellipse 37" class="cls-5" cx="2.379" cy="3.025" rx="2.379" ry="3.025" transform="translate(2789.123 7421.499)"/>
      <ellipse id="Ellipse_38" data-name="Ellipse 38" class="cls-1" cx="2.379" cy="3.025" rx="2.379" ry="3.025" transform="translate(2827.854 7396.073)"/>
      <ellipse id="Ellipse_39" data-name="Ellipse 39" class="cls-1" cx="2.379" cy="3.025" rx="2.379" ry="3.025" transform="translate(2866.117 7371.965)"/>
      <ellipse id="Ellipse_40" data-name="Ellipse 40" class="cls-1" cx="2.379" cy="3.025" rx="2.379" ry="3.025" transform="translate(2904.253 7343.606)"/>
      <ellipse id="Ellipse_41" data-name="Ellipse 41" class="cls-1" cx="2.379" cy="3.025" rx="2.379" ry="3.025" transform="translate(2942.762 7324.125)"/>
      <text id="_100_" data-name="100%" class="cls-6" transform="translate(2729.793 7330.561)"><tspan x="0" y="0">100%</tspan></text>
      <text id="_0" data-name="0" class="cls-7" transform="translate(2750.968 7458.113)"><tspan x="0" y="0">0</tspan></text>
      <text id="_10" data-name="10" class="cls-6" transform="translate(2786.476 7458.113)"><tspan x="0" y="0">10</tspan></text>
      <text id="_20" data-name="20" class="cls-6" transform="translate(2824.666 7458.113)"><tspan x="0" y="0">20</tspan></text>
      <text id="_30" data-name="30" class="cls-6" transform="translate(2862.856 7458.113)"><tspan x="0" y="0">30</tspan></text>
      <text id="_40" data-name="40" class="cls-6" transform="translate(2901.046 7458.113)"><tspan x="0" y="0">40</tspan></text>
      <text id="_50" data-name="50" class="cls-6" transform="translate(2939.235 7458.113)"><tspan x="0" y="0">50</tspan></text>
      <text id="_60" data-name="60" class="cls-6" transform="translate(2977.301 7458.113)"><tspan x="0" y="0">60</tspan></text>
      <text id="_80_" data-name="80%" class="cls-6" transform="translate(2729.793 7353.816)"><tspan x="0" y="0">80%</tspan></text>
      <text id="_60_" data-name="60%" class="cls-6" transform="translate(2729.793 7377.07)"><tspan x="0" y="0">60%</tspan></text>
      <text id="_40_" data-name="40%" class="cls-6" transform="translate(2729.793 7400.324)"><tspan x="0" y="0">40%</tspan></text>
      <text id="_20_" data-name="20%" class="cls-6" transform="translate(2729.793 7422.823)"><tspan x="0" y="0">20%</tspan></text>
      <line id="Line_87" data-name="Line 87" class="cls-3" y2="143.181" transform="translate(2791.486 7302.013)"/>
      <line id="Line_88" data-name="Line 88" class="cls-3" y2="143.181" transform="translate(2830.232 7302.013)"/>
      <line id="Line_89" data-name="Line 89" class="cls-3" y2="143.181" transform="translate(2868.979 7302.013)"/>
      <line id="Line_90" data-name="Line 90" class="cls-3" y2="143.181" transform="translate(2906.819 7302.013)"/>
      <line id="Line_91" data-name="Line 91" class="cls-3" y2="143.181" transform="translate(2945.548 7302.013)"/>
      <text id="y_0.0104x_-_0.0184" data-name="y= 0.0104x - 0.0184" class="cls-6" transform="translate(2870.875 7320.597)"><tspan x="0" y="0">y= 0.0104x - 0.0184</tspan></text>
      <g id="Group_307" data-name="Group 307">
        <text id="R_0.9985" data-name="R= 0.9985" class="cls-6" transform="translate(2887.589 7344.251)"><tspan x="0" y="0">R= 0.9985</tspan></text>
        <text id="_2" data-name="2" class="cls-8" transform="translate(2891.931 7341.667)"><tspan x="0" y="0">2</tspan></text>
      </g>
    </g>
    <rect id="Rectangle_98" data-name="Rectangle 98" class="cls-1" width="219.562" height="24.704" transform="translate(45.622 16.054)"/>
    <text id="Bioavailability_Report" data-name="Bioavailability Report" class="cls-9" transform="translate(54.697 33.073)"><tspan x="0" y="0">Bioavailability Report</tspan></text>
    <g id="Group_325" data-name="Group 325" transform="translate(-2689.988 -7251.593)">
      <circle id="Ellipse_57" data-name="Ellipse 57" class="cls-10" cx="25.335" cy="25.335" r="25.335" transform="translate(2689.988 7251.593)"/>
      <g id="Group_324" data-name="Group 324">
        <path id="Path_299" data-name="Path 299" class="cls-11" d="M2734.886,7275.867q.024.477.024.962a19.587,19.587,0,0,1-33.3,13.988"/>
        <path id="Path_300" data-name="Path 300" class="cls-11" d="M2696.8,7283.226a19.59,19.59,0,0,1,34.292-18.01"/>
        <g id="Group_323" data-name="Group 323">
          <path id="Path_301" data-name="Path 301" class="cls-11" d="M2715.43,7263.166s-12.6,8.841-9.868,18.561a10.079,10.079,0,0,0,11.277,6.724,10.2,10.2,0,0,0,6.847-3.629,10.484,10.484,0,0,0,1.545-8.3,12.715,12.715,0,0,0-.905-2.855,23.318,23.318,0,0,0-2.415-3.975,25.622,25.622,0,0,0-5.915-6.154C2715.81,7263.412,2715.622,7263.287,2715.43,7263.166Z"/>
        </g>
        <path id="Path_302" data-name="Path 302" class="cls-11" d="M2728.653,7266.365l3.673.474v-3.673"/>
        <path id="Path_303" data-name="Path 303" class="cls-11" d="M2704.382,7290.435l-3.629-.74-.267,3.664"/>
      </g>
    </g>
  </g>
</svg>
