<svg xmlns="http://www.w3.org/2000/svg" width="94" height="115.132" viewBox="0 0 94 115.132">
  <defs>
    <style>
      .cls-1, .cls-2 {
        fill: #005d2e;
      }

      .cls-1 {
        font-size: 15px;
        font-family: SegoeUI, Segoe UI;
        letter-spacing: 0.1em;
      }
    </style>
  </defs>
  <g id="Component_9_1" data-name="Component 9 – 1" transform="translate(1)">
    <text id="No_Side_Effects" data-name="No
Side Effects" class="cls-1" transform="translate(46 88.132)"><tspan x="-10.755" y="0">No</tspan><tspan x="-46.043" y="23">Side Effects</tspan></text>
    <g id="Group_202" data-name="Group 202" transform="translate(-1294.203 -2698.671)">
      <g id="Group_200" data-name="Group 200">
        <g id="Group_199" data-name="Group 199">
          <path id="Path_197" data-name="Path 197" class="cls-2" d="M1340.2,2751.364a26.347,26.347,0,1,1,26.348-26.348A26.38,26.38,0,0,1,1340.2,2751.364Zm0-49.943a23.6,23.6,0,1,0,23.594,23.6A23.622,23.622,0,0,0,1340.2,2701.421Z"/>
        </g>
      </g>
      <g id="Group_201" data-name="Group 201">
        <path id="Path_198" data-name="Path 198" class="cls-2" d="M1340.21,2739.75a3.951,3.951,0,0,1-.437-.025l-.031,0c-1.65-.228-2.8-1.551-3.721-2.614-.254-.293-.494-.573-.725-.794a76.817,76.817,0,0,1-8.115-9.037c-2.633-3.5-3.441-7.259-2.216-10.317a8.183,8.183,0,0,1,5.63-4.926,10.032,10.032,0,0,1,8.637,1.746,5.63,5.63,0,0,1,.539.493,10.312,10.312,0,0,1,12.107-2.093,7.406,7.406,0,0,1,3.8,4.557c1.109,3.877-.893,7.933-1.8,9.5-2.594,4.452-6.414,8.037-10.108,11.5l-.591.555a4.533,4.533,0,0,1-2.671,1.447C1340.406,2739.746,1340.308,2739.75,1340.21,2739.75Zm-.106-2.757a.91.91,0,0,0,.173,0c.285-.024.757-.469,1.01-.708l.595-.558c3.55-3.332,7.221-6.777,9.613-10.883,1.53-2.622,2.1-5.371,1.538-7.354a4.6,4.6,0,0,0-2.441-2.881,7.562,7.562,0,0,0-8.763,1.486c-.026.035-.066.1-.11.167a2.876,2.876,0,0,1-.915.985,1.486,1.486,0,0,1-1.953-.1.947.947,0,0,0-.106-.085,6.064,6.064,0,0,1-.805-.731,3.986,3.986,0,0,0-.4-.389,7.235,7.235,0,0,0-6.228-1.256,5.5,5.5,0,0,0-3.789,3.292c-.846,2.112-.15,4.967,1.86,7.639a74.11,74.11,0,0,0,7.817,8.7c.288.276.588.618.9.98C1338.715,2736.013,1339.48,2736.9,1340.1,2736.993Zm-.877-22-.018.011Z"/>
      </g>
    </g>
  </g>
</svg>
