<svg xmlns="http://www.w3.org/2000/svg" width="293.883" height="170.376" viewBox="0 0 293.883 170.376">
  <defs>
    <style>
      .cls-1 {
        fill: #231f20;
      }

      .cls-1, .cls-3 {
        font-size: 15px;
        font-family: SegoeUI, Segoe UI;
        letter-spacing: 0.1em;
      }

      .cls-2, .cls-7 {
        fill: none;
      }

      .cls-2, .cls-5, .cls-7 {
        stroke: #fff;
        stroke-miterlimit: 10;
      }

      .cls-3, .cls-6 {
        fill: #fff;
      }

      .cls-4 {
        font-family: FuturaStd-Heavy;
        font-weight: 800;
      }

      .cls-5 {
        fill: #eaa921;
      }

      .cls-5, .cls-7 {
        stroke-width: 1.5px;
      }
    </style>
  </defs>
  <g id="Group_300" data-name="Group 300" transform="translate(-2056.679 -7250.843)">
    <text id="Curcuminoids_Triterpenoid_Saponins_Bacosides_A1_A2_A3_Piperine_Water_Soluble_Peptides" data-name="Curcuminoids
Triterpenoid Saponins
Bacosides A1, A2, A3
Piperine
Water Soluble Peptides" class="cls-1" transform="translate(2112.399 7313.129)"><tspan x="0" y="0">Curcuminoids</tspan><tspan x="0" y="23">Triterpenoid Saponins</tspan><tspan x="0" y="46">Bacosides A1, A2, A3</tspan><tspan x="0" y="69">Piperine</tspan><tspan x="0" y="92">Water Soluble Peptides</tspan></text>
    <text id="_28_7_7_4_10_" data-name="28%
7%
7%
4%
10%" class="cls-1" transform="translate(2305.221 7313.129)"><tspan x="0" y="0">28%</tspan><tspan x="0" y="23">7%</tspan><tspan x="0" y="46">7%</tspan><tspan x="0" y="69">4%</tspan><tspan x="0" y="92">10%</tspan></text>
    <path id="Path_273" data-name="Path 273" class="cls-2" d="M2103.324,7274.765h-12.856v145.954H2329.44l9.327-9.327"/>
    <rect id="Rectangle_96" data-name="Rectangle 96" class="cls-2" width="246.738" height="24.704" transform="translate(2103.324 7265.186)"/>
    <text id="Key_Ingredients_" data-name="Key Ingredients
" class="cls-3" transform="translate(2112.399 7282.133)"><tspan x="0" y="0">Key Ingredients</tspan><tspan class="cls-4"><tspan x="0" y="23"></tspan></tspan></text>
    <text id="_API_" data-name="%API
" class="cls-3" transform="translate(2305.221 7281.792)"><tspan x="0" y="0">%API</tspan><tspan class="cls-4"><tspan x="0" y="23"></tspan></tspan></text>
    <g id="Group_299" data-name="Group 299">
      <circle id="Ellipse_35" data-name="Ellipse 35" class="cls-5" cx="25.335" cy="25.335" r="25.335" transform="translate(2057.429 7251.593)"/>
      <g id="Group_297" data-name="Group 297">
        <path id="Path_274" data-name="Path 274" class="cls-6" d="M2063.92,7280.357"/>
        <path id="Path_275" data-name="Path 275" class="cls-7" d="M2079.295,7282.418s1.247-2.733,1.926-2.7a1.5,1.5,0,0,0,1.83-.766l1.831-1.619a1.347,1.347,0,0,0,.436-1.044l.142-.385a5.593,5.593,0,0,0,2.878-4.472s.86-2.912-.213-3.538a5.156,5.156,0,0,0-1.939-.808s-.513-1.8-2.017-1.428a6.532,6.532,0,0,1-1.3.487,2.543,2.543,0,0,0-1.725.52c-.958.712-1.712,1.619-2.772,2.274l.027-1.458a.606.606,0,0,1,.038-.24.634.634,0,0,1,.185-.209,3.413,3.413,0,0,0,1.056-1.476,2.048,2.048,0,0,0-.19-1.764c-.935-1.38-3.3-1.357-4.693-.9-1.46.485-3.359,2.338-3.035,4.034a6.329,6.329,0,0,0,.293.86,3.454,3.454,0,0,1,.03,2.144c-.159.508-.434.972-.618,1.471a2.069,2.069,0,0,0-.052,1.554,2.2,2.2,0,0,1-1.058,1.081c-.031.015.4-1.562.462-1.72.28-.67-1.122-1.42-1.593-1.362a3.047,3.047,0,0,0-2.182,2.371c-.13.584-.119,1.192-.22,1.782-.182,1.06-1.506,1.882-1.115,3.024,0,0-.193.933-.511,1.014a3.137,3.137,0,0,0-1.448,1.6s-.673,7.369,3.558,7.712"/>
        <path id="Path_276" data-name="Path 276" class="cls-7" d="M2063.92,7280.357s5.271,3.621,3.484,7.925a.132.132,0,0,0,.18.171c1.209-.588,5.347-2.636,5.814-3.32l.7-.917a1.981,1.981,0,0,0,2.335-.057,1.225,1.225,0,0,1,.878-.06,2.285,2.285,0,0,0,1.981-1.681"/>
        <path id="Path_277" data-name="Path 277" class="cls-6" d="M2074.1,7284.216"/>
        <path id="Path_278" data-name="Path 278" class="cls-6" d="M2074.039,7281.933"/>
        <path id="Path_279" data-name="Path 279" class="cls-6" d="M2077.345,7266.12"/>
        <path id="Path_280" data-name="Path 280" class="cls-6" d="M2075.966,7262.753"/>
        <path id="Path_281" data-name="Path 281" class="cls-6" d="M2074.3,7267.447"/>
        <path id="Path_282" data-name="Path 282" class="cls-6" d="M2072.706,7264.382"/>
        <path id="Path_283" data-name="Path 283" class="cls-6" d="M2074.58,7283.972"/>
        <path id="Path_284" data-name="Path 284" class="cls-6" d="M2075.813,7280.664"/>
      </g>
      <circle id="Ellipse_36" data-name="Ellipse 36" class="cls-7" cx="3.833" cy="3.833" r="3.833" transform="translate(2080.139 7286.614)"/>
      <g id="Group_298" data-name="Group 298">
        <path id="Path_285" data-name="Path 285" class="cls-7" d="M2090.949,7286.084s-4.972-15.043,8.877-18.048C2099.826,7268.036,2108.109,7282.305,2090.949,7286.084Z"/>
        <line id="Line_78" data-name="Line 78" class="cls-7" y1="17.878" x2="8.166" transform="translate(2090.949 7268.206)"/>
      </g>
    </g>
  </g>
</svg>
